<svg width="1200" height="630" viewBox="0 0 1200 630" fill="none" xmlns="http://www.w3.org/2000/svg">
  <rect width="1200" height="630" fill="#0B0B0C"/>
  <rect x="40" y="40" width="1120" height="550" rx="26" fill="url(#bg)" opacity="0.94"/>
  <circle cx="250" cy="250" r="125" fill="#151829"/>
  <rect x="215" y="180" width="70" height="130" rx="35" fill="#8B5CF6"/>
  <rect x="190" y="310" width="120" height="18" rx="9" fill="#7D88A2"/>
  <rect x="410" y="145" width="680" height="38" rx="19" fill="#1E2539"/>
  <rect x="410" y="205" width="510" height="22" rx="11" fill="#252F48"/>
  <rect x="410" y="245" width="560" height="22" rx="11" fill="#252F48"/>
  <rect x="410" y="285" width="530" height="22" rx="11" fill="#252F48"/>
  <rect x="410" y="342" width="260" height="56" rx="12" fill="#3B82F6"/>
  <rect x="690" y="342" width="260" height="56" rx="12" fill="#10B981"/>
  <text x="95" y="495" fill="#F4F5F6" font-family="Arial, sans-serif" font-size="46" font-weight="700">Podcast to Social Content Studio</text>
  <text x="95" y="538" fill="#B8BFCE" font-family="Arial, sans-serif" font-size="27">Transcription, summarization, and channel-ready drafts</text>
  <defs>
    <linearGradient id="bg" x1="40" y1="40" x2="1160" y2="590" gradientUnits="userSpaceOnUse">
      <stop stop-color="#0F1D35"/>
      <stop offset="1" stop-color="#1A1B30"/>
    </linearGradient>
  </defs>
</svg>
