<svg width="1200" height="630" viewBox="0 0 1200 630" fill="none" xmlns="http://www.w3.org/2000/svg">
  <rect width="1200" height="630" fill="#0B0B0C"/>
  <rect x="40" y="40" width="1120" height="550" rx="26" fill="url(#bg)" opacity="0.95"/>
  <rect x="96" y="120" width="300" height="390" rx="16" fill="#161A2A" stroke="#2E3650"/>
  <rect x="130" y="165" width="230" height="18" rx="9" fill="#252E47"/>
  <rect x="130" y="205" width="190" height="18" rx="9" fill="#252E47"/>
  <rect x="130" y="245" width="210" height="18" rx="9" fill="#252E47"/>
  <rect x="130" y="285" width="170" height="18" rx="9" fill="#252E47"/>
  <rect x="452" y="120" width="300" height="390" rx="16" fill="#161A2A" stroke="#2E3650"/>
  <circle cx="602" cy="246" r="70" fill="#8B5CF6" opacity="0.85"/>
  <rect x="518" y="357" width="168" height="22" rx="11" fill="#25314B"/>
  <rect x="806" y="120" width="300" height="390" rx="16" fill="#161A2A" stroke="#2E3650"/>
  <rect x="840" y="165" width="232" height="18" rx="9" fill="#2B3452"/>
  <rect x="840" y="205" width="196" height="18" rx="9" fill="#2B3452"/>
  <rect x="840" y="247" width="220" height="18" rx="9" fill="#2B3452"/>
  <rect x="840" y="288" width="206" height="18" rx="9" fill="#2B3452"/>
  <path d="M398 315H449" stroke="#5B6C93" stroke-width="8" stroke-linecap="round"/>
  <path d="M755 315H806" stroke="#5B6C93" stroke-width="8" stroke-linecap="round"/>
  <text x="95" y="554" fill="#F4F5F6" font-family="Arial, sans-serif" font-size="46" font-weight="700">RAG Assistant Architecture</text>
  <defs>
    <linearGradient id="bg" x1="40" y1="40" x2="1160" y2="590" gradientUnits="userSpaceOnUse">
      <stop stop-color="#12162B"/>
      <stop offset="1" stop-color="#1A1030"/>
    </linearGradient>
  </defs>
</svg>
